<?xml version="1.0" standalone="no"?>
<!DOCTYPE svg PUBLIC "-//W3C//DTD SVG 20010904//EN"
 "http://www.w3.org/TR/2001/REC-SVG-20010904/DTD/svg10.dtd">
<svg version="1.0" xmlns="http://www.w3.org/2000/svg"
 width="200.000000pt" height="200.000000pt" viewBox="0 0 200.000000 200.000000"
 preserveAspectRatio="xMidYMid meet">
<metadata>
Created by potrace 1.14, written by Peter Selinger 2001-2017
</metadata>
<g transform="translate(0.000000,200.000000) scale(0.100000,-0.100000)"
fill="#000000" stroke="none">
<path d="M300 1937 c-19 -6 -58 -34 -86 -62 -59 -59 -80 -116 -71 -199 6 -63
23 -99 67 -143 28 -28 31 -36 25 -70 -22 -122 -6 -201 50 -255 19 -17 32 -34
30 -37 -1 -3 -6 -69 -9 -146 -4 -77 -9 -165 -11 -195 -3 -47 -12 -201 -20
-367 -7 -154 106 -325 255 -386 53 -21 68 -22 440 -25 269 -2 402 0 440 8 139
30 251 132 299 271 15 46 18 78 16 170 -4 119 -12 281 -20 384 -16 215 -17
302 -2 308 9 3 28 27 43 53 30 52 37 120 21 217 -4 27 -4 47 2 47 4 0 25 25
46 54 32 47 38 65 42 123 7 109 -43 193 -142 239 l-50 24 -665 -1 c-455 -1
-676 -5 -700 -12z m1363 -129 c63 -33 84 -97 52 -158 -32 -62 -10 -61 -722
-58 -357 2 -655 5 -663 8 -8 3 -22 15 -31 28 -8 12 -18 20 -21 17 -3 -3 -5 20
-4 52 1 63 19 93 66 112 38 15 1295 14 1323 -1z m-30 -355 c15 -24 19 -111 6
-135 -7 -13 -12 -26 -11 -30 1 -5 -1 -7 -6 -6 -4 1 -19 -4 -34 -10 -37 -15
-76 -6 -115 28 -18 17 -41 28 -51 26 -30 -6 -52 -18 -47 -26 3 -4 -2 -11 -11
-14 -8 -3 -13 -10 -9 -15 3 -5 -4 -12 -15 -16 -11 -3 -20 -10 -20 -14 0 -12
-77 -6 -93 7 -7 7 -17 10 -20 7 -4 -3 -5 -2 -3 1 9 12 -42 53 -60 49 -11 -2
-24 -4 -30 -4 -6 -1 -22 -16 -35 -35 -13 -19 -27 -33 -30 -30 -4 2 -10 1 -13
-4 -3 -5 -22 -7 -42 -6 -28 3 -45 13 -71 40 -32 35 -83 54 -83 31 0 -5 -3 -7
-7 -4 -3 4 -15 -5 -25 -20 -10 -16 -18 -23 -18 -18 0 6 -4 4 -9 -3 -5 -8 -26
-15 -48 -17 -33 -2 -46 3 -72 27 -17 16 -31 33 -31 37 0 4 -11 14 -25 21 -20
11 -27 11 -40 0 -8 -7 -15 -9 -15 -4 0 5 -7 1 -14 -8 -58 -76 -180 -43 -178
49 1 60 8 94 19 101 6 4 289 7 630 7 481 0 620 -2 626 -12z m-955 -342 c24 -5
56 -7 70 -5 48 8 92 25 87 34 -8 12 16 6 55 -15 66 -35 144 -36 209 -3 46 24
46 24 85 5 69 -33 185 -19 232 28 14 13 18 13 44 0 16 -8 42 -15 59 -15 16 0
33 -4 36 -10 6 -9 10 -83 15 -230 1 -30 1 -61 1 -67 -1 -10 -40 -13 -158 -13
l-158 0 -24 31 c-25 31 -93 75 -133 86 -63 17 -154 14 -208 -6 -62 -23 -134
-77 -124 -93 4 -7 2 -8 -4 -4 -7 4 -12 2 -12 -4 0 -7 -51 -10 -162 -8 l-162 3
3 70 c3 109 12 228 16 235 2 4 18 7 34 8 16 0 42 7 57 15 26 13 31 13 63 -9
20 -13 56 -27 79 -33z m376 -293 c23 -6 46 -10 51 -9 5 1 7 0 4 -4 -4 -3 5
-18 20 -34 14 -15 34 -37 43 -49 20 -25 8 -24 238 -26 l175 -1 3 -39 c1 -22 5
-42 7 -44 2 -3 0 -12 -4 -21 -8 -14 -33 -16 -200 -15 -112 1 -191 -2 -191 -8
0 -5 -4 -7 -9 -4 -5 4 -19 -10 -31 -29 -12 -19 -26 -35 -31 -35 -6 0 -7 -5 -4
-10 4 -6 3 -10 -2 -9 -4 1 -25 -6 -47 -15 -21 -10 -50 -18 -65 -20 -34 -3 -92
12 -112 30 -9 8 -19 11 -23 7 -4 -5 -6 -1 -4 7 2 8 -3 14 -9 13 -7 -2 -13 4
-13 12 0 9 -7 18 -15 21 -8 4 -13 10 -10 14 14 23 -32 30 -218 30 l-197 1 0
28 c0 16 3 41 6 57 l5 29 187 -1 c179 -1 187 0 206 21 39 41 54 63 48 70 -4 4
-2 6 3 4 12 -3 65 22 65 30 0 11 84 11 124 -1z m-274 -405 c88 -89 239 -115
351 -60 31 15 72 43 92 62 l36 35 169 0 170 0 -5 -36 c-13 -98 -95 -196 -185
-222 -13 -3 -189 -8 -391 -9 -414 -4 -441 -1 -514 62 -49 41 -93 125 -93 174
l0 36 167 -3 167 -3 36 -36z"/>
</g>
</svg>
