<?xml version="1.0" standalone="no"?>
<!DOCTYPE svg PUBLIC "-//W3C//DTD SVG 20010904//EN"
 "http://www.w3.org/TR/2001/REC-SVG-20010904/DTD/svg10.dtd">
<svg version="1.0" xmlns="http://www.w3.org/2000/svg"
 width="200.000000pt" height="200.000000pt" viewBox="0 0 200.000000 200.000000"
 preserveAspectRatio="xMidYMid meet">
<metadata>
Created by potrace 1.14, written by Peter Selinger 2001-2017
</metadata>
<g transform="translate(0.000000,200.000000) scale(0.100000,-0.100000)"
fill="#000000" stroke="none">
<path d="M300 1937 c-19 -6 -58 -34 -86 -62 -59 -59 -80 -116 -71 -199 6 -63
23 -99 67 -143 28 -28 31 -36 25 -70 -22 -122 -6 -201 50 -255 19 -17 32 -34
31 -37 -2 -3 -7 -69 -10 -146 -4 -77 -9 -165 -11 -195 -4 -60 -16 -287 -19
-360 -7 -162 102 -331 253 -392 55 -23 63 -23 466 -23 455 0 455 0 554 66 71
48 126 118 157 203 19 52 22 77 19 171 -3 115 -12 288 -20 390 -16 217 -17
302 -2 308 9 3 28 27 43 53 30 51 37 121 22 213 -7 40 -5 46 22 74 42 43 63
94 68 162 6 96 -43 181 -132 228 -41 22 -42 22 -716 24 -474 1 -685 -2 -710
-10z m1374 -136 c55 -36 70 -94 41 -151 -32 -62 -12 -60 -715 -61 -438 0 -646
4 -660 11 -11 6 -20 7 -20 3 0 -4 -12 10 -26 31 -44 65 -22 148 46 175 16 6
269 10 665 10 616 1 641 0 669 -18z m-41 -348 c15 -24 19 -111 6 -135 -7 -13
-12 -26 -11 -30 1 -5 -1 -7 -6 -6 -4 1 -20 -4 -37 -11 -37 -15 -68 -8 -114 29
-20 16 -43 28 -51 26 -28 -6 -50 -18 -45 -26 3 -4 -2 -11 -11 -14 -8 -3 -13
-10 -9 -15 3 -5 -4 -12 -15 -16 -11 -3 -20 -10 -20 -14 0 -5 -67 -8 -77 -2 -2
0 -6 2 -10 3 -5 2 -22 17 -39 35 -19 19 -39 30 -50 28 -10 -2 -24 -4 -31 -4
-6 -1 -20 -14 -29 -31 -18 -30 -57 -46 -103 -42 -13 1 -39 18 -59 38 -35 36
-82 54 -82 31 0 -5 -3 -7 -7 -4 -3 4 -15 -5 -25 -20 -10 -16 -18 -23 -18 -18
0 6 -4 4 -9 -3 -5 -8 -26 -15 -49 -17 -41 -2 -40 -3 -117 76 -22 22 -60 19
-79 -6 -6 -8 -24 -21 -40 -29 -65 -33 -140 11 -138 81 1 60 8 94 19 101 6 4
289 7 630 7 484 1 620 -2 626 -12z m-955 -342 c52 -11 95 -6 142 18 33 17 36
17 68 -2 62 -37 145 -38 212 -4 45 23 45 23 84 4 69 -33 185 -19 232 28 14 13
18 13 44 0 16 -8 42 -15 59 -15 16 0 33 -4 36 -10 6 -9 10 -83 15 -230 1 -30
1 -61 1 -67 -1 -10 -39 -13 -155 -13 l-154 0 -46 44 c-117 114 -315 114 -433
0 l-45 -44 -156 2 -155 3 3 85 c2 47 4 112 5 146 3 74 6 81 44 82 16 0 42 7
57 15 26 13 31 13 63 -9 20 -13 55 -27 79 -33z m102 -698 c88 -89 239 -115
351 -60 31 15 72 43 92 62 l36 35 148 0 c81 1 158 1 169 1 19 -1 21 -5 17 -37
-13 -98 -94 -195 -185 -222 -13 -3 -189 -8 -392 -9 -414 -4 -440 -1 -513 62
-49 41 -93 125 -93 174 l0 36 167 -3 167 -3 36 -36z"/>
</g>
</svg>
