<svg xmlns="http://www.w3.org/2000/svg" xmlns:xlink="http://www.w3.org/1999/xlink" viewBox="0 0 261.72 123.54"><defs><style>.cls-1{fill:#fe6448;}.cls-2{fill:url(#radial-gradient);}.cls-3{fill:url(#linear-gradient);}.cls-4{fill:url(#radial-gradient-2);}.cls-5{fill:url(#radial-gradient-3);}.cls-6{fill:url(#linear-gradient-2);}.cls-7{fill:url(#radial-gradient-4);}.cls-8{fill:url(#radial-gradient-5);}.cls-9{fill:url(#linear-gradient-3);}.cls-10{fill:url(#linear-gradient-4);}.cls-11{fill:url(#radial-gradient-6);}.cls-12{fill:url(#linear-gradient-5);}.cls-13{fill:url(#linear-gradient-6);}.cls-14{fill:url(#linear-gradient-7);}.cls-15{fill:url(#linear-gradient-8);}</style><radialGradient id="radial-gradient" cx="-229.38" cy="173.15" r="33.49" gradientTransform="matrix(3, 0, 0, -3, 696.4, 544.49)" gradientUnits="userSpaceOnUse"><stop offset="0.04" stop-color="#ffd147" stop-opacity="0"/><stop offset="0.68" stop-color="#ffd147" stop-opacity="0"/><stop offset="1" stop-color="#ffd147"/></radialGradient><linearGradient id="linear-gradient" x1="-207.21" y1="183.32" x2="-211.51" y2="160.99" gradientTransform="matrix(3, 0, 0, -3, 696.4, 544.49)" gradientUnits="userSpaceOnUse"><stop offset="0.33" stop-color="#ffd147"/><stop offset="0.52" stop-color="#ffd147" stop-opacity="0.68"/><stop offset="0.92" stop-color="#ffd147" stop-opacity="0"/></linearGradient><radialGradient id="radial-gradient-2" cx="-202.48" cy="154.67" r="31.97" gradientTransform="matrix(3, 0, 0, -3, 696.4, 544.49)" gradientUnits="userSpaceOnUse"><stop offset="0.04" stop-color="#ffd147" stop-opacity="0"/><stop offset="0.44" stop-color="#ffd147" stop-opacity="0"/><stop offset="0.74" stop-color="#ffd147" stop-opacity="0"/><stop offset="0.97" stop-color="#ffd147"/></radialGradient><radialGradient id="radial-gradient-3" cx="-197.11" cy="162" r="29.41" gradientTransform="matrix(3, 0, 0, -3, 751.62, 544.57)" gradientUnits="userSpaceOnUse"><stop offset="0" stop-color="#ffd147" stop-opacity="0"/><stop offset="0.51" stop-color="#ffd147" stop-opacity="0"/><stop offset="0.89" stop-color="#ffd147"/></radialGradient><linearGradient id="linear-gradient-2" x1="-198.75" y1="158.57" x2="-209.06" y2="147.34" gradientTransform="matrix(3, 0, 0, -3, 751.62, 544.57)" gradientUnits="userSpaceOnUse"><stop offset="0.26" stop-color="#ffd147"/><stop offset="0.48" stop-color="#ffd147" stop-opacity="0.68"/><stop offset="0.96" stop-color="#ffd147" stop-opacity="0"/></linearGradient><radialGradient id="radial-gradient-4" cx="-257.1" cy="80.36" r="5.55" gradientTransform="matrix(1.99, 2.24, 1.56, -1.39, 508.26, 751.11)" gradientUnits="userSpaceOnUse"><stop offset="0.2" stop-color="#ffd147"/><stop offset="1" stop-color="#ffd147" stop-opacity="0"/></radialGradient><radialGradient id="radial-gradient-5" cx="-202.51" cy="168.76" r="38" gradientTransform="matrix(3, 0, 0, -3, 751.62, 544.57)" gradientUnits="userSpaceOnUse"><stop offset="0" stop-color="#ffd147" stop-opacity="0"/><stop offset="0.62" stop-color="#ffd147" stop-opacity="0"/><stop offset="0.93" stop-color="#ffd147"/></radialGradient><linearGradient id="linear-gradient-3" x1="-208.66" y1="149.26" x2="-224.32" y2="146.79" gradientTransform="matrix(3, 0, 0, -3, 751.62, 544.57)" gradientUnits="userSpaceOnUse"><stop offset="0.21" stop-color="#ffd147"/><stop offset="0.44" stop-color="#ffd147" stop-opacity="0.68"/><stop offset="0.92" stop-color="#ffd147" stop-opacity="0"/></linearGradient><linearGradient id="linear-gradient-4" x1="-188.83" y1="161.05" x2="-207.48" y2="143.05" gradientTransform="matrix(3, 0, 0, -3, 843.24, 544.57)" gradientUnits="userSpaceOnUse"><stop offset="0.19" stop-color="#ffd147"/><stop offset="0.42" stop-color="#ffd147" stop-opacity="0.68"/><stop offset="0.92" stop-color="#ffd147" stop-opacity="0"/></linearGradient><radialGradient id="radial-gradient-6" cx="-188.94" cy="162.17" r="31.28" gradientTransform="matrix(3, 0, 0, -3, 843.24, 544.57)" gradientUnits="userSpaceOnUse"><stop offset="0" stop-color="#ffd147" stop-opacity="0"/><stop offset="0.57" stop-color="#ffd147" stop-opacity="0"/><stop offset="0.9" stop-color="#ffd147"/></radialGradient><linearGradient id="linear-gradient-5" x1="-220.63" y1="154.4" x2="-207.97" y2="153.42" gradientTransform="matrix(3, 0, 0, -3, 843.24, 544.57)" gradientUnits="userSpaceOnUse"><stop offset="0.34" stop-color="#ffd147"/><stop offset="0.53" stop-color="#ffd147" stop-opacity="0.68"/><stop offset="0.92" stop-color="#ffd147" stop-opacity="0"/></linearGradient><linearGradient id="linear-gradient-6" x1="-230.56" y1="153.4" x2="-214.99" y2="154.9" gradientTransform="matrix(3, 0, 0, -3, 843.24, 544.57)" xlink:href="#linear-gradient-3"/><linearGradient id="linear-gradient-7" x1="-233.22" y1="123.24" x2="-225.05" y2="166.32" gradientTransform="matrix(3, 0, 0, -3, 843.24, 544.57)" gradientUnits="userSpaceOnUse"><stop offset="0.21" stop-color="#ffd147"/><stop offset="0.4" stop-color="#ffd147" stop-opacity="0.68"/><stop offset="0.8" stop-color="#ffd147" stop-opacity="0"/></linearGradient><linearGradient id="linear-gradient-8" x1="-221.42" y1="121.4" x2="-213.25" y2="164.48" gradientTransform="matrix(3, 0, 0, -3, 843.24, 544.57)" gradientUnits="userSpaceOnUse"><stop offset="0.21" stop-color="#ffd147"/><stop offset="0.41" stop-color="#ffd147" stop-opacity="0.68"/><stop offset="0.84" stop-color="#ffd147" stop-opacity="0"/></linearGradient></defs><g id="Layer_2" data-name="Layer 2"><g id="svg76928"><g id="logo-group"><g id="logo-center"><g id="title"><g id="path76937"><path class="cls-1" d="M0,104.32c-.22,8.42,6.26,19.22,21.6,19.22,24.84,0,35.21-27.43,42.12-46C69.5,62,75.61,44.16,78.86,28.41a56.55,56.55,0,0,0,.92-5.66c2.94.07,5.66.13,6.42.13,10.58,0,24-.87,26.35-11.67a13.15,13.15,0,0,0,.22-4.1,1.6,1.6,0,0,0-.43-1.3c0-.43.21-.43.21-.64a.46.46,0,0,0-.43-.44,6,6,0,0,0-1.73-3.24C108.88,0,107.8-.24,107.15.2c-.43.43-.21.86-.21,1.29a2.1,2.1,0,0,1,0,2c-1.73,5-16,3-19.45,3.89-.43,0-.43-.22-.65-.22h-.43c-.21,0-.43-.22-.64-.22H84.9c-.43.22-15.12-.43-19.44-.43C53.36,6,42.78,6,33.71,11.86,30,14,26.79,17.91,25.93,22c-.22,1.3-1.08,4.11-.22,4.11.43.22.65-.65,1.51-1.73,2.16-2.59,5.4-3.67,8.21-4.54,8-1.45,15.11.38,26.89,1.75C60.71,31.38,54.85,50.55,54,52.9a37.15,37.15,0,0,0-1.51,4.54v.87c-.22.21-.43.43-.43.64a1.16,1.16,0,0,1-.43.87c-.22.43,0,.43,0,.65a2.14,2.14,0,0,1-.22.64c-.22.44-.43.65-.43,1.08a11.79,11.79,0,0,1-.65,2.6c-.22.43-.65.43-.65,1.08v.43c-.22.43-.43.65-.65,1.08a58.48,58.48,0,0,1-1.73,5.83,19.55,19.55,0,0,0-1.08,3.24c-.43,1.08-.43,2.16-.86,3,0,.43-.43.64-.43,1.07V81c0,.21-.22.21-.22.43-.21.22,0,.43-.21.65,0,.21-.22.43-.44.86A1.67,1.67,0,0,0,43.86,84C38,102.37,30,115.33,20.93,115.33c-4.51,0-9.91-3.5-9-10.41a8.58,8.58,0,0,1,5.4-7.3c.64-.43,1.29-.43,1.29-.86.22-1.3-1.72-3.46-3.89-4.32s-5-2.16-8.42-.22C2.34,94,.44,98.48,0,104.32Z"/><path class="cls-2" d="M56.65,44.31C55.38,48.65,54.33,52,54,52.9a36.59,36.59,0,0,0-1.51,4.54v.86c-.22.22-.43.43-.43.65a1.12,1.12,0,0,1-.43.86c-.22.44,0,.44,0,.65a2.12,2.12,0,0,1-.22.65c-.22.43-.43.65-.43,1.08a11.71,11.71,0,0,1-.65,2.59c-.22.44-.65.44-.65,1.08v.43c-.22.44-.43.65-.65,1.09a59.28,59.28,0,0,1-1.73,5.83,19.55,19.55,0,0,0-1.08,3.24c-.43,1.08-.43,2.16-.86,3,0,.43-.43.65-.43,1.08V81c0,.22-.22.22-.22.44-.21.21,0,.43-.21.65,0,.21-.22.43-.44.86A1.65,1.65,0,0,0,43.86,84c-5.33,16.76-12.48,29-20.58,31,15.61-2.61,33.06-21.61,45.82-52.5,2.06-6,4-12.14,5.76-18.19Z"/><path class="cls-3" d="M51.62,60.53H69.77a279.54,279.54,0,0,0,9.09-32.12c.46-2.26.76-4.11.92-5.66-3.2-.09-6.67-.2-8.19-.3-3.4-.22-6.46-.52-9.27-.85C60.71,31.38,54.85,50.55,54,52.9a37.15,37.15,0,0,0-1.51,4.54v.87c-.22.21-.43.43-.43.64a1.16,1.16,0,0,1-.43.87c-.22.43,0,.43,0,.65A.11.11,0,0,0,51.62,60.53Z"/><path class="cls-4" d="M107.73,13.08c2.55-3.65,2.81-11.19-.79-12.56v0a2.36,2.36,0,0,0,0,1,2.1,2.1,0,0,1,0,2c-1.73,5-16,3-19.45,3.89-.43,0-.43-.22-.65-.22h-.43c-.21,0-.43-.22-.64-.22H84.9c-.29.15-7.07-.09-12.81-.28-.3,0-11.76-.31-13.62-.31a75.67,75.67,0,0,0-8.29.32,34.68,34.68,0,0,0-16.79,7.69A18.73,18.73,0,0,0,26,26.09c.3-.17.58-.86,1.26-1.7,2.15-2.59,5.39-3.67,8.2-4.54,8.56-1.55,16.14.66,29.53,2C77.89,22.69,101.2,22.43,107.73,13.08Z"/></g><g id="path76939"><path class="cls-1" d="M105.53,103.45a31.18,31.18,0,0,0,1.17,9.29c1.72,5.61,4.8,9.72,12.15,9.72,4.79,0,8.72-2.51,15.65-7.84.82-.63,1.54-1.38,2.3-2.08a11.47,11.47,0,0,0,.81-.91,9.64,9.64,0,0,1,1.24-1.06,12.19,12.19,0,0,0,1.72-1.57,1.8,1.8,0,0,0,.44-1,1.41,1.41,0,0,0,.64-.1c.52-.2.74-.75,1-1.19s.78-.42,1.16-.86c.75-.88,7.45-6,8.19-10.63a5.11,5.11,0,0,0-4-5.8c-.82,2.16-5.38,7.62-12,13.76C129.61,109,124,114,121.41,113.93c-9.51-.14,15.53-44,16.82-46.34,1.3-2.59,4.33-7.13,4.33-9.94.21-2.16-2.38-3.24-4.54-4.75-1.51-1.08-6.7-5-8.64-4.32a5.37,5.37,0,0,0-2.74,2.31c-.14.22-2.19,3.45-4,6.65-4.34-3.81-11.17-6.8-16.58-6.8-3.67,0-9.07,2.38-14.26,7.56-5,5-8.21,9.94-11.67,16-4.31,8-10.51,24.32-8.48,35.69,1.2,6.74,4.4,11.59,9.86,12.27,7.11.89,13.65-7,16.56-10.24C100.49,109.29,103.1,106.39,105.53,103.45ZM85.71,113.1c-1.95-.06-1.58-3.87-1-8.41.8-6,3.82-13.34,6.41-18.3,6-11.46,8.87-15.85,15.14-20.17A13.33,13.33,0,0,1,114,64a12.89,12.89,0,0,1,4.68,1.09A159.43,159.43,0,0,0,111,80.28C103.31,93.86,88.11,112.92,85.71,113.1Z"/><path class="cls-5" d="M127.68,110.46h0c-2.68,2.13-4.89,3.5-6.27,3.48-9.51-.14,15.53-44,16.82-46.34,1.3-2.59,4.33-7.13,4.33-9.94.21-2.16-2.38-3.24-4.54-4.75-1.51-1.08-6.7-5-8.64-4.32a5.37,5.37,0,0,0-2.74,2.31c-.2.31-4.16,6.56-6,10.31-3.75,7.7-6.29,10.44-11.8,24.21a51,51,0,0,0-3,12.39C107,116.58,117.73,119.22,127.68,110.46Z"/><path class="cls-6" d="M148,89.44c-.82,2.16-5.38,7.62-12,13.76-3,2.78-5.83,5.32-8.27,7.25h0c-10,8.76-20.72,6.12-21.81-12.66-.61,5.13-.53,10.52.83,14.94,1.72,5.61,4.8,9.72,12.15,9.72,4.79,0,8.72-2.51,15.65-7.84.82-.64,1.54-1.38,2.3-2.08a11.47,11.47,0,0,0,.81-.91,9.64,9.64,0,0,1,1.24-1.06,12.19,12.19,0,0,0,1.72-1.57,1.8,1.8,0,0,0,.44-1,1.56,1.56,0,0,0,.64-.1c.52-.2.74-.75,1-1.19s.78-.42,1.16-.86c.75-.88,7.45-6,8.19-10.63A5.11,5.11,0,0,0,148,89.44Z"/><path class="cls-7" d="M138,52.9c-1.51-1.08-6.7-5-8.64-4.32a5.37,5.37,0,0,0-2.74,2.31c-.14.22-2.19,3.45-4,6.65a15.89,15.89,0,0,1,3.19,3.66c1.84,3.11.41,7.69-.67,9.45-1-2.28-3.63-4.34-6.5-5.54-1.79,3.33-3.47,6.14-5.61,10.66C118.91,77.59,123.3,83,129,85c4.4-8.81,8.75-16.46,9.27-17.41,1.3-2.59,4.33-7.13,4.33-9.94C142.77,55.49,140.18,54.41,138,52.9Z"/><path class="cls-8" d="M125.82,61.2c-3.18-5.37-12.7-10.46-19.77-10.46-3.67,0-9.07,2.38-14.26,7.56-5,5-8.21,9.94-11.67,16a84.17,84.17,0,0,0-8,22.54c-.83,21.11,8.84,22.08,16.12,14.39h0c-1.19,1.16-2.07,1.85-2.51,1.88-1.95-.06-1.58-3.87-1-8.41.8-6,3.82-13.34,6.41-18.3,6-11.46,8.87-15.85,15.14-20.17A13.33,13.33,0,0,1,114,64c4.06,0,9.69,3.1,11.18,6.64C126.23,68.89,127.66,64.31,125.82,61.2Z"/><path class="cls-9" d="M72.1,96.83A37.55,37.55,0,0,0,71.64,110c1.2,6.74,4.4,11.59,9.86,12.27,7.11.89,13.65-7,16.56-10.24,2.43-2.72,5-5.62,7.47-8.56a52.47,52.47,0,0,1,3.33-18c.78-2,1.49-3.63,2.17-5.19-6.26,11.09-17.55,25.84-22.81,31h0C80.94,118.91,71.27,117.94,72.1,96.83Z"/></g><g id="path76941"><path class="cls-1" d="M159.11,65.43c-5.62,16-14.91,29.59-14.26,43,.22,4.53.65,6.69,4.32,10.58,2.38,2.59,7.56,4.54,8.42,2.81.44-.65-.43-.86,0-3.89.12-1,.3-2.29.62-3.84,3.92-11.09,28.94-43.39,35.95-51.78-1.77,4.15-3.95,9.63-6.11,14.8-3.67,8.63-6.91,17.92-8.2,27.21-.87,7.56.43,16.42,8.85,18.37,1.73.64,5,.21,5.83-1.3.44-.65-.64-.65-.64-3.67a36.22,36.22,0,0,1,.81-6.59c3.24-9.14,9.26-14.75,10.59-16.37,6-7.26,10-10.67,16.26-17.35.94-1,2-2,3-3-2,4.25-4.07,8.86-5.15,11.57a71.91,71.91,0,0,0-3.68,13.4c-1.08,4.75-.86,10.15.65,13.6,2.81,6.27,6.7,9.29,13.39,9.29,3.46,0,6.82-.64,14.41-7.62.78-.68,1.55-1.38,2.3-2.08a11.47,11.47,0,0,0,.81-.91,10.37,10.37,0,0,1,1.24-1.06,11.14,11.14,0,0,0,1.72-1.57,1.66,1.66,0,0,0,.44-1,1.39,1.39,0,0,0,.64-.1c.52-.2.74-.75,1-1.19s.78-.42,1.15-.86c.76-.88,7.46-6,8.2-10.63a5.11,5.11,0,0,0-4-5.8c-.81,2.16-5.37,7.63-12,13.76-6.34,5.84-12.56,10.73-15.19,10.73-4.16,0-1.68-9.17,1.14-16.2A202.88,202.88,0,0,1,241,77.53c.21-.43.65-.65.86-1.08.43-.87.65-1.73,1.08-2.6,2.16-3.88,3.89-7.12,3.89-10.8a8,8,0,0,0-4.54-6.91c-3.45-1.94-6.69-3.89-8-2.81a18.74,18.74,0,0,0-1.91,3.26c-1.81,1.57-4.42,3-7.06,5.19a158.83,158.83,0,0,0-16.44,16c-1,1.18-2.62,2.89-4.45,4.9,3.18-6.59,6.41-13,9.34-19.39,1.08-1.73,2.59-4.75,1.73-6.48-1.08-2.59-4.75-3.89-7.56-5.4a10.23,10.23,0,0,0-5.11-1.83l-.1-.05c-1.9-.64-4.66-.76-8.05,1.08-6.1,3.32-13.56,14.58-22.29,25.81v0c2.32-6,4.13-10.83,4.43-12.66.43-3.67-.22-6.26-2.81-8.64a36.89,36.89,0,0,0-10.15-6.48c-1.08-.43-4.32-1.3-5-.21-.21.64.86,1.29,1.3,3.67A23.57,23.57,0,0,1,159.11,65.43Z"/><path class="cls-10" d="M257.64,89.44c-.81,2.16-5.37,7.62-12,13.76-3,2.78-6,5.32-8.58,7.25h0C226.43,120,215.88,116.8,216,98c-.08.44-.18.88-.25,1.31-1.08,4.75-.86,10.15.65,13.6,2.81,6.27,6.7,9.29,13.39,9.29,3.46,0,6.82-.64,14.41-7.62.78-.68,1.55-1.38,2.3-2.08a11.47,11.47,0,0,0,.81-.91,10.37,10.37,0,0,1,1.24-1.06,11.66,11.66,0,0,0,1.72-1.57,1.66,1.66,0,0,0,.44-1,1.39,1.39,0,0,0,.64-.1c.52-.2.74-.75,1-1.19s.78-.42,1.15-.86c.76-.88,7.46-6,8.2-10.63A5.11,5.11,0,0,0,257.64,89.44Z"/><path class="cls-11" d="M237,110.46h0c-2.85,2.12-5.23,3.48-6.61,3.48-4.16,0-1.68-9.17,1.14-16.2A202.88,202.88,0,0,1,241,77.53c.21-.43.65-.65.86-1.08.43-.87.65-1.73,1.08-2.59,2.16-3.89,3.89-7.13,3.89-10.81a8,8,0,0,0-4.54-6.91c-3.45-1.94-6.69-3.89-8-2.81-2.37,3-4.86,10.77-8,17.36-2.37,5-5.49,11.73-6.9,15.26A75.89,75.89,0,0,0,216,98C215.88,116.8,226.43,120,237,110.46Z"/><path class="cls-12" d="M225.31,61.78a158.83,158.83,0,0,0-16.44,16c-1,1.18-2.62,2.89-4.45,4.9-.73,1.49-1.45,3-2.16,4.5-.42.88-2,4.74-3.23,8.32a131.55,131.55,0,0,0-4.33,15.64c3.24-9.14,9.26-14.75,10.59-16.37,6-7.26,10-10.67,16.26-17.35.94-1,2-2,3-3,.6-1.29,1.19-2.54,1.75-3.69,2.31-4.85,4.27-10.35,6.09-14.1C230.56,58.16,228,59.6,225.31,61.78Z"/><path class="cls-13" d="M202.72,49.51c-1.9-.64-4.66-.76-8.05,1.08-6.1,3.32-13.56,14.58-22.29,25.81-1,2.56-12.07,30.66-12.84,32.67a51.41,51.41,0,0,0-1.39,5.31c3.5-10.74,28.93-43.6,36-52.08,1.05-2.46,2-4.47,2.61-5.66.46-.84,2.61-6.28,5.14-7a5.59,5.59,0,0,1,.91,0Z"/><path class="cls-14" d="M159.54,109.07c.77-2,11.91-30.28,12.85-32.71,2.32-6,4.13-10.83,4.43-12.66.43-3.67-.22-6.26-2.81-8.64a36.89,36.89,0,0,0-10.15-6.48c-1.08-.43-4.32-1.3-5-.21-.21.64.86,1.29,1.3,3.67a23.57,23.57,0,0,1-1.08,13.39c-5.62,16-14.91,29.59-14.26,43,.22,4.53.65,6.69,4.32,10.58,2.38,2.59,7.56,4.54,8.42,2.81.44-.65-.43-.86,0-3.89A44.78,44.78,0,0,1,159.54,109.07Z"/><path class="cls-15" d="M215.49,56.79c-1.08-2.59-4.75-3.89-7.56-5.4-2.32-1.36-4-2.12-6-1.79-2.53.76-4.68,6.2-5.14,7-1.78,3.21-5.29,12.23-8.72,20.46-3.67,8.63-6.91,17.92-8.2,27.21-.87,7.56.43,16.42,8.85,18.37,1.73.64,5,.21,5.83-1.3.44-.65-.64-.65-.64-3.67,0-6,3.25-16.67,5.14-22.23,1.21-3.58,2.81-7.44,3.23-8.32,3.86-8.23,7.91-16,11.5-23.89C214.84,61.54,216.35,58.52,215.49,56.79Z"/></g></g></g></g></g></g></svg>